{"accessors" : [{"bufferView" : 0, "byteOffset" : 0, "componentType" : 5123, "count" : 1668, "type" : "SCALAR", "max" : [617], "min" : [0]}, {"bufferView" : 1, "byteOffset" : 0, "componentType" : 5126, "count" : 618, "type" : "VEC3", "max" : [71.5967102050781, 138.057403564453, 64.581901550293], "min" : [-67.0675964355469, -19.3467998504639, -73.0099105834961]}, {"bufferView" : 1, "byteOffset" : 12, "componentType" : 5126, "count" : 618, "type" : "VEC3", "max" : [0.999387741088867, 0.999683916568756, 0.996812045574188], "min" : [-0.984862387180328, -0.970154821872711, -0.999209225177765]}, {"bufferView" : 1, "byteOffset" : 24, "componentType" : 5126, "count" : 618, "type" : "VEC2", "max" : [1.03569996356964, 0], "min" : [-0.0140999499708414, -1.00709998607636]}, {"bufferView" : 0, "byteOffset" : 3336, "componentType" : 5123, "count" : 1152, "type" : "SCALAR", "max" : [431], "min" : [0]}, {"bufferView" : 2, "byteOffset" : 0, "componentType" : 5126, "count" : 432, "type" : "VEC3", "max" : [60.6743011474609, 113.977500915527, 56.6832008361816], "min" : [-68.2110977172852, -16.6695995330811, -87.9773101806641]}, {"bufferView" : 2, "byteOffset" : 12, "componentType" : 5126, "count" : 432, "type" : "VEC3", "max" : [0.995117485523224, 0.995358347892761, 0.990338385105133], "min" : [-0.999978482723236, -0.965319871902466, -1.00000441074371]}, {"bufferView" : 2, "byteOffset" : 24, "componentType" : 5126, "count" : 432, "type" : "VEC2", "max" : [1, 0], "min" : [0, -1]}, {"bufferView" : 0, "byteOffset" : 5640, "componentType" : 5123, "count" : 6132, "type" : "SCALAR", "max" : [2792], "min" : [0]}, {"bufferView" : 3, "byteOffset" : 0, "componentType" : 5126, "count" : 2793, "type" : "VEC3", "max" : [47.890998840332, 97.7218017578125, 47.6996994018555], "min" : [-47.1366996765137, -4.66319990158081, -52.1282005310059]}, {"bufferView" : 3, "byteOffset" : 12, "componentType" : 5126, "count" : 2793, "type" : "VEC3", "max" : [0.997799932956696, 0.999671876430511, 0.999685525894165], "min" : [-0.997757613658905, -0.971742808818817, -0.994325459003448]}, {"bufferView" : 3, "byteOffset" : 24, "componentType" : 5126, "count" : 2793, "type" : "VEC2", "max" : [0.972299993038177, -0.011899939738214], "min" : [0.010999970138073, -0.989700019359589]}, {"bufferView" : 0, "byteOffset" : 17904, "componentType" : 5123, "count" : 1500, "type" : "SCALAR", "max" : [442], "min" : [0]}, {"bufferView" : 4, "byteOffset" : 0, "componentType" : 5126, "count" : 443, "type" : "VEC3", "max" : [60.6176986694336, 86.3707962036133, 60.9910011291504], "min" : [-50.3577003479004, -14.0735998153687, -48.7486000061035]}, {"bufferView" : 4, "byteOffset" : 12, "componentType" : 5126, "count" : 443, "type" : "VEC3", "max" : [0.986109972000122, 0.998153924942017, 0.999991357326508], "min" : [-0.997047781944275, -0.987726271152496, -0.999303340911865]}, {"bufferView" : 4, "byteOffset" : 24, "componentType" : 5126, "count" : 443, "type" : "VEC2", "max" : [0.991900026798248, -0.00869995262473822], "min" : [0.0012999769533053, -0.98089998960495]}, {"bufferView" : 0, "byteOffset" : 20904, "componentType" : 5123, "count" : 2640, "type" : "SCALAR", "max" : [844], "min" : [0]}, {"bufferView" : 5, "byteOffset" : 0, "componentType" : 5126, "count" : 845, "type" : "VEC3", "max" : [70.8199005126953, 101.161499023438, 60.469898223877], "min" : [-59.9632987976074, -7.60949993133545, -70.5152969360352]}, {"bufferView" : 5, "byteOffset" : 12, "componentType" : 5126, "count" : 845, "type" : "VEC3", "max" : [0.999743103981018, 1.00000441074371, 0.998935341835022], "min" : [-0.999802887439728, -0.991429686546326, -1.00000441074371]}, {"bufferView" : 5, "byteOffset" : 24, "componentType" : 5126, "count" : 845, "type" : "VEC2", "max" : [0.994400024414063, -0.00169998395722359], "min" : [0.00419998122379184, -0.995599985122681]}, {"bufferView" : 0, "byteOffset" : 26184, "componentType" : 5123, "count" : 1524, "type" : "SCALAR", "max" : [575], "min" : [0]}, {"bufferView" : 6, "byteOffset" : 0, "componentType" : 5126, "count" : 576, "type" : "VEC3", "max" : [124.941703796387, 167.171493530273, 118.79109954834], "min" : [-123.195297241211, -0.602699995040894, -139.030700683594]}, {"bufferView" : 6, "byteOffset" : 12, "componentType" : 5126, "count" : 576, "type" : "VEC3", "max" : [0.984645485877991, 0.999973773956299, 0.967352628707886], "min" : [-0.99647718667984, -0.161663502454758, -0.997366726398468]}, {"bufferView" : 6, "byteOffset" : 24, "componentType" : 5126, "count" : 576, "type" : "VEC2", "max" : [1.00929999351501, 0], "min" : [0, -1]}, {"bufferView" : 0, "byteOffset" : 29232, "componentType" : 5123, "count" : 2112, "type" : "SCALAR", "max" : [689], "min" : [0]}, {"bufferView" : 7, "byteOffset" : 0, "componentType" : 5126, "count" : 690, "type" : "VEC3", "max" : [68.3096008300781, 82.5736999511719, 75.54541015625], "min" : [-69.7059020996094, -2.57369995117188, -69.5988998413086]}, {"bufferView" : 7, "byteOffset" : 12, "componentType" : 5126, "count" : 690, "type" : "VEC3", "max" : [0.999429225921631, 0.99955952167511, 0.999429523944855], "min" : [-0.999427676200867, -0.331878244876862, -0.99941474199295]}, {"bufferView" : 7, "byteOffset" : 24, "componentType" : 5126, "count" : 690, "type" : "VEC2", "max" : [1, 0], "min" : [0, -1]}, {"bufferView" : 0, "byteOffset" : 33456, "componentType" : 5123, "count" : 4329, "type" : "SCALAR", "max" : [1553], "min" : [0]}, {"bufferView" : 8, "byteOffset" : 0, "componentType" : 5126, "count" : 1554, "type" : "VEC3", "max" : [100.525199890137, 182.683807373047, 80.576301574707], "min" : [-81.8687973022461, -11.5321998596191, -88.646110534668]}, {"bufferView" : 8, "byteOffset" : 12, "componentType" : 5126, "count" : 1554, "type" : "VEC3", "max" : [0.999974250793457, 0.999538600444794, 0.998832106590271], "min" : [-0.98688817024231, -0.684083640575409, -0.999124586582184]}, {"bufferView" : 8, "byteOffset" : 24, "componentType" : 5126, "count" : 1554, "type" : "VEC2", "max" : [1.02450001239777, 0], "min" : [-0.0243999902158976, -1]}, {"bufferView" : 0, "byteOffset" : 42116, "componentType" : 5123, "count" : 1416, "type" : "SCALAR", "max" : [521], "min" : [0]}, {"bufferView" : 9, "byteOffset" : 0, "componentType" : 5126, "count" : 522, "type" : "VEC3", "max" : [66.434700012207, 174.731903076172, 74.5254974365234], "min" : [-71.3276977539063, -0.0425999686121941, -109.483901977539]}, {"bufferView" : 9, "byteOffset" : 12, "componentType" : 5126, "count" : 522, "type" : "VEC3", "max" : [0.999512553215027, 0.998617231845856, 0.999971151351929], "min" : [-0.998254656791687, -0.757771730422974, -0.999780297279358]}, {"bufferView" : 9, "byteOffset" : 24, "componentType" : 5126, "count" : 522, "type" : "VEC2", "max" : [1, 0], "min" : [0, -1]}, {"bufferView" : 0, "byteOffset" : 44948, "componentType" : 5123, "count" : 1824, "type" : "SCALAR", "max" : [474], "min" : [0]}, {"bufferView" : 10, "byteOffset" : 0, "componentType" : 5126, "count" : 475, "type" : "VEC3", "max" : [95.6614990234375, 94.4033966064453, 95.6053009033203], "min" : [-97.1369018554688, -22.1690998077393, -97.8179016113281]}, {"bufferView" : 10, "byteOffset" : 12, "componentType" : 5126, "count" : 475, "type" : "VEC3", "max" : [0.998687207698822, 0.999958157539368, 0.99797523021698], "min" : [-0.999865651130676, -0.20142374932766, -0.994627892971039]}, {"bufferView" : 10, "byteOffset" : 24, "componentType" : 5126, "count" : 475, "type" : "VEC2", "max" : [1, 0], "min" : [0, -1]}, {"bufferView" : 0, "byteOffset" : 48596, "componentType" : 5123, "count" : 960, "type" : "SCALAR", "max" : [356], "min" : [0]}, {"bufferView" : 11, "byteOffset" : 0, "componentType" : 5126, "count" : 357, "type" : "VEC3", "max" : [59.382999420166, 229.235595703125, 60.1273994445801], "min" : [-59.5029983520508, -2.83829998970032, -60.0069007873535]}, {"bufferView" : 11, "byteOffset" : 12, "componentType" : 5126, "count" : 357, "type" : "VEC3", "max" : [0.999994039535522, 0.999158024787903, 0.999994039535522], "min" : [-0.999994039535522, -0.530967533588409, -0.999994039535522]}, {"bufferView" : 11, "byteOffset" : 24, "componentType" : 5126, "count" : 357, "type" : "VEC2", "max" : [0.999199986457825, 1.03709995746613], "min" : [0.0422999784350395, -2.03710007667542]}, {"bufferView" : 0, "byteOffset" : 50516, "componentType" : 5123, "count" : 1353, "type" : "SCALAR", "max" : [433], "min" : [0]}, {"bufferView" : 12, "byteOffset" : 0, "componentType" : 5126, "count" : 434, "type" : "VEC3", "max" : [115.75659942627, 439.739288330078, 110.41739654541], "min" : [-82.703010559082, 0, -87.2469100952148]}, {"bufferView" : 12, "byteOffset" : 12, "componentType" : 5126, "count" : 434, "type" : "VEC3", "max" : [0.999941885471344, 1.00000441074371, 0.998477339744568], "min" : [-0.999996602535248, -0.836000502109528, -0.995656549930573]}, {"bufferView" : 12, "byteOffset" : 24, "componentType" : 5126, "count" : 434, "type" : "VEC2", "max" : [0.992299973964691, -0.00329995108768344], "min" : [0.00970000028610229, -0.994499981403351]}], "asset" : {"generator" : "Aspose.3D 20.1", "version" : "2.0"}, "buffers" : [{"uri" : "buffer.bin", "byteLength" : 364924}], "bufferViews" : [{"buffer" : 0, "byteOffset" : 0, "byteLength" : 53224, "target" : 34963}, {"buffer" : 0, "byteOffset" : 53228, "byteLength" : 19776, "byteStride" : 32, "target" : 34962}, {"buffer" : 0, "byteOffset" : 73008, "byteLength" : 13824, "byteStride" : 32, "target" : 34962}, {"buffer" : 0, "byteOffset" : 86836, "byteLength" : 89376, "byteStride" : 32, "target" : 34962}, {"buffer" : 0, "byteOffset" : 176216, "byteLength" : 14176, "byteStride" : 32, "target" : 34962}, {"buffer" : 0, "byteOffset" : 190396, "byteLength" : 27040, "byteStride" : 32, "target" : 34962}, {"buffer" : 0, "byteOffset" : 217440, "byteLength" : 18432, "byteStride" : 32, "target" : 34962}, {"buffer" : 0, "byteOffset" : 235876, "byteLength" : 22080, "byteStride" : 32, "target" : 34962}, {"buffer" : 0, "byteOffset" : 257960, "byteLength" : 49728, "byteStride" : 32, "target" : 34962}, {"buffer" : 0, "byteOffset" : 307692, "byteLength" : 16704, "byteStride" : 32, "target" : 34962}, {"buffer" : 0, "byteOffset" : 324400, "byteLength" : 15200, "byteStride" : 32, "target" : 34962}, {"buffer" : 0, "byteOffset" : 339604, "byteLength" : 11424, "byteStride" : 32, "target" : 34962}, {"buffer" : 0, "byteOffset" : 351032, "byteLength" : 13888, "byteStride" : 32, "target" : 34962}], "materials" : [{"pbrMetallicRoughness" : {"baseColorFactor" : [0.64, 0.64, 0.64, 1], "metallicFactor" : 0, "roughnessFactor" : 0}, "emissiveFactor" : [0, 0, 0], "alphaMode" : "OPAQUE", "doubleSided" : false}, {"pbrMetallicRoughness" : {"baseColorFactor" : [0.64, 0.64, 0.64, 1], "metallicFactor" : 0, "roughnessFactor" : 0}, "emissiveFactor" : [0, 0, 0], "alphaMode" : "OPAQUE", "doubleSided" : false}, {"pbrMetallicRoughness" : {"baseColorFactor" : [0.64, 0.64, 0.64, 1], "metallicFactor" : 0, "roughnessFactor" : 0}, "emissiveFactor" : [0, 0, 0], "alphaMode" : "OPAQUE", "doubleSided" : false}, {"pbrMetallicRoughness" : {"baseColorFactor" : [0.64, 0.64, 0.64, 1], "metallicFactor" : 0, "roughnessFactor" : 0}, "emissiveFactor" : [0, 0, 0], "alphaMode" : "OPAQUE", "doubleSided" : false}, {"pbrMetallicRoughness" : {"baseColorFactor" : [0.64, 0.64, 0.64, 1], "metallicFactor" : 0, "roughnessFactor" : 0}, "emissiveFactor" : [0, 0, 0], "alphaMode" : "OPAQUE", "doubleSided" : false}, {"pbrMetallicRoughness" : {"baseColorFactor" : [0.64, 0.64, 0.64, 1], "metallicFactor" : 0, "roughnessFactor" : 0}, "emissiveFactor" : [0, 0, 0], "alphaMode" : "OPAQUE", "doubleSided" : false}, {"pbrMetallicRoughness" : {"baseColorFactor" : [0.64, 0.64, 0.64, 1], "metallicFactor" : 0, "roughnessFactor" : 0}, "emissiveFactor" : [0, 0, 0], "alphaMode" : "OPAQUE", "doubleSided" : false}, {"pbrMetallicRoughness" : {"baseColorFactor" : [0.64, 0.64, 0.64, 1], "metallicFactor" : 0, "roughnessFactor" : 0}, "emissiveFactor" : [0, 0, 0], "alphaMode" : "OPAQUE", "doubleSided" : false}, {"pbrMetallicRoughness" : {"baseColorFactor" : [0.64, 0.64, 0.64, 1], "metallicFactor" : 0, "roughnessFactor" : 0}, "emissiveFactor" : [0, 0, 0], "alphaMode" : "OPAQUE", "doubleSided" : false}, {"pbrMetallicRoughness" : {"baseColorFactor" : [0.64, 0.64, 0.64, 1], "metallicFactor" : 0, "roughnessFactor" : 0}, "emissiveFactor" : [0, 0, 0], "alphaMode" : "OPAQUE", "doubleSided" : false}, {"pbrMetallicRoughness" : {"baseColorFactor" : [0.64, 0.64, 0.64, 1], "metallicFactor" : 0, "roughnessFactor" : 0}, "emissiveFactor" : [0, 0, 0], "alphaMode" : "OPAQUE", "doubleSided" : false}, {"pbrMetallicRoughness" : {"baseColorFactor" : [1, 1, 1, 1], "metallicFactor" : 0, "roughnessFactor" : 0}, "emissiveFactor" : [0, 0, 0], "alphaMode" : "OPAQUE", "doubleSided" : false}], "meshes" : [{"primitives" : [{"attributes" : {"POSITION" : 1, "NORMAL" : 2, "TEXCOORD_0" : 3}, "indices" : 0, "material" : 0, "mode" : 4}]}, {"primitives" : [{"attributes" : {"POSITION" : 5, "NORMAL" : 6, "TEXCOORD_0" : 7}, "indices" : 4, "material" : 1, "mode" : 4}]}, {"primitives" : [{"attributes" : {"POSITION" : 9, "NORMAL" : 10, "TEXCOORD_0" : 11}, "indices" : 8, "material" : 2, "mode" : 4}]}, {"primitives" : [{"attributes" : {"POSITION" : 13, "NORMAL" : 14, "TEXCOORD_0" : 15}, "indices" : 12, "material" : 3, "mode" : 4}]}, {"primitives" : [{"attributes" : {"POSITION" : 17, "NORMAL" : 18, "TEXCOORD_0" : 19}, "indices" : 16, "material" : 4, "mode" : 4}]}, {"primitives" : [{"attributes" : {"POSITION" : 21, "NORMAL" : 22, "TEXCOORD_0" : 23}, "indices" : 20, "material" : 5, "mode" : 4}]}, {"primitives" : [{"attributes" : {"POSITION" : 25, "NORMAL" : 26, "TEXCOORD_0" : 27}, "indices" : 24, "material" : 6, "mode" : 4}]}, {"primitives" : [{"attributes" : {"POSITION" : 29, "NORMAL" : 30, "TEXCOORD_0" : 31}, "indices" : 28, "material" : 7, "mode" : 4}]}, {"primitives" : [{"attributes" : {"POSITION" : 33, "NORMAL" : 34, "TEXCOORD_0" : 35}, "indices" : 32, "material" : 8, "mode" : 4}]}, {"primitives" : [{"attributes" : {"POSITION" : 37, "NORMAL" : 38, "TEXCOORD_0" : 39}, "indices" : 36, "material" : 9, "mode" : 4}]}, {"primitives" : [{"attributes" : {"POSITION" : 41, "NORMAL" : 42, "TEXCOORD_0" : 43}, "indices" : 40, "material" : 10, "mode" : 4}]}, {"primitives" : [{"attributes" : {"POSITION" : 45, "NORMAL" : 46, "TEXCOORD_0" : 47}, "indices" : 44, "material" : 11, "mode" : 4}]}], "nodes" : [{"matrix" : [1, 0, 0, 0, 0, -1.62921E-07, 1, 0, 0, -1, -1.62921E-07, 0, 0, 0, 0, 1], "mesh" : 0, "name" : "bush_01_002"}, {"matrix" : [1, 0, 0, 0, 0, -1.62921E-07, 1, 0, 0, -1, -1.62921E-07, 0, 0, 0, 0, 1], "mesh" : 1, "name" : "bush_02_001"}, {"matrix" : [1.334123, 0, 0, 0, 0, -2.17356E-07, 1.334123, 0, 0, -1.334123, -2.17356E-07, 0, 0, 0, 0, 1], "mesh" : 2, "name" : "flower_001"}, {"matrix" : [1, 0, 0, 0, 0, -1.62921E-07, 1, 0, 0, -1, -1.62921E-07, 0, 0, 0, 0, 1], "mesh" : 3, "name" : "bush_04_001"}, {"matrix" : [1, 0, 0, 0, 0, -1.62921E-07, 1, 0, 0, -1, -1.62921E-07, 0, 0, 0, 0, 1], "mesh" : 4, "name" : "bush_05"}, {"matrix" : [0.8159704, 0, 0, 0, 0, -1.32938E-07, 0.8159704, 0, 0, -0.8159704, -1.32938E-07, 0, 0, 0, 0, 1], "mesh" : 5, "name" : "trop_shrub_01"}, {"matrix" : [1, 0, 0, 0, 0, -1.62921E-07, 1, 0, 0, -1, -1.62921E-07, 0, 0, 0, 0, 1], "mesh" : 6, "name" : "trop_shrub_02"}, {"matrix" : [0.6343071, 0, 0, 0, 0, -1.03342E-07, 0.6343071, 0, 0, -0.6343071, -1.03342E-07, 0, 0, 0, 0, 1], "mesh" : 7, "name" : "trop_shrub_03"}, {"matrix" : [0.9026915, 0, 0, 0, 0, -1.47067E-07, 0.9026915, 0, 0, -0.9026915, -1.47067E-07, 0, 0, 0, 0, 1], "mesh" : 8, "name" : "trop_shrub_04"}, {"matrix" : [1, 0, 0, 0, 0, -1.62921E-07, 1, 0, 0, -1, -1.62921E-07, 0, 0, 0, 0, 1], "mesh" : 9, "name" : "trop_shrub_05"}, {"matrix" : [0.7989619, 0, 0, 0, 0, -1.30167E-07, 0.7989619, 0, 0, -0.7989619, -1.30167E-07, 0, 0, 0, 0, 1], "mesh" : 10, "name" : "thistle"}, {"matrix" : [0.8885754, 0, 0, 0, 0, -1.44767E-07, 0.8885754, 0, 0, -0.8885754, -1.44767E-07, 0, 0, 0, 0, 1], "mesh" : 11, "name" : "palm_tree_palm"}], "scene" : 0, "scenes" : [{"nodes" : [0, 1, 2, 3, 4, 5, 6, 7, 8, 9, 10, 11]}]}